# xmcd CD database file
#
# Track frame offsets:
#	150
#	9946
#	24676
#	39081
#	51169
#	63501
#	74999
#	89989
#	106649
#	120876
#
# Disc length: 1716 seconds
#
# Revision: 0
# Processed by: cddbd v1.5.1PL0 Copyright (c) Steve Scherf et al.
# Submitted via: CDex 1.51
#
DISCID=8006b20a
DTITLE=Tony Bennett - The Best of Tony Bennett
DYEAR=1999
DGENRE=Jazz
TTITLE0=Blue Moon
TTITLE1=Manhattan
TTITLE2=As Time Goes By
TTITLE3=Spring is Here
TTITLE4=This Funny World
TTITLE5=I've Got Five Dollars
TTITLE6=Have You Met Miss Jones?
TTITLE7=My Romance
TTITLE8=I Could Write a Book
TTITLE9=Experiment
EXTD=YEAR: 1999
EXTT0=
EXTT1=
EXTT2=
EXTT3=
EXTT4=
EXTT5=
EXTT6=
EXTT7=
EXTT8=
EXTT9=
PLAYORDER=
